<?xml version="1.0" encoding="UTF-8" standalone="no"?>
<!DOCTYPE svg PUBLIC "-//W3C//DTD SVG 1.1//EN"
 "http://www.w3.org/Graphics/SVG/1.1/DTD/svg11.dtd">
<!-- Generated by graphviz version 2.43.0 (0)
 -->
<!-- Title: bp_fe_top Pages: 1 -->
<svg width="633pt" height="188pt"
 viewBox="0.00 0.00 633.21 188.00" xmlns="http://www.w3.org/2000/svg" xmlns:xlink="http://www.w3.org/1999/xlink">
<g id="graph0" class="graph" transform="scale(1 1) rotate(0) translate(4 184)">
<title>bp_fe_top</title>
<polygon fill="white" stroke="transparent" points="-4,4 -4,-184 629.21,-184 629.21,4 -4,4"/>
<!-- bp_fe_top -->
<g id="node1" class="node">
<title>bp_fe_top</title>
<ellipse fill="#b2dfee" stroke="#b2dfee" cx="184.24" cy="-162" rx="45.93" ry="18"/>
<text text-anchor="middle" x="184.24" y="-157.8" font-family="Times,serif" font-size="14.00">bp_fe_top</text>
</g>
<!-- bp_fe_mem -->
<g id="node2" class="node">
<title>bp_fe_mem</title>
<ellipse fill="#b2dfee" stroke="#b2dfee" cx="119.24" cy="-90" rx="52.19" ry="18"/>
<text text-anchor="middle" x="119.24" y="-85.8" font-family="Times,serif" font-size="14.00">bp_fe_mem</text>
</g>
<!-- bp_fe_top&#45;&gt;bp_fe_mem -->
<g id="edge1" class="edge">
<title>bp_fe_top&#45;&gt;bp_fe_mem</title>
<path fill="none" stroke="black" d="M169.17,-144.76C161,-135.97 150.75,-124.93 141.66,-115.14"/>
<polygon fill="black" stroke="black" points="144.06,-112.58 134.69,-107.63 138.93,-117.34 144.06,-112.58"/>
</g>
<!-- bp_fe_pc_gen -->
<g id="node3" class="node">
<title>bp_fe_pc_gen</title>
<ellipse fill="#b2dfee" stroke="#b2dfee" cx="281.24" cy="-90" rx="60.4" ry="18"/>
<text text-anchor="middle" x="281.24" y="-85.8" font-family="Times,serif" font-size="14.00">bp_fe_pc_gen</text>
</g>
<!-- bp_fe_top&#45;&gt;bp_fe_pc_gen -->
<g id="edge2" class="edge">
<title>bp_fe_top&#45;&gt;bp_fe_pc_gen</title>
<path fill="none" stroke="black" d="M205.29,-145.81C218.61,-136.2 236.05,-123.61 250.86,-112.92"/>
<polygon fill="black" stroke="black" points="253.17,-115.58 259.23,-106.89 249.07,-109.9 253.17,-115.58"/>
</g>
<!-- bp_fe_icache -->
<g id="node7" class="node">
<title>bp_fe_icache</title>
<ellipse fill="#b2dfee" stroke="#b2dfee" cx="57.24" cy="-18" rx="57.49" ry="18"/>
<text text-anchor="middle" x="57.24" y="-13.8" font-family="Times,serif" font-size="14.00">bp_fe_icache</text>
</g>
<!-- bp_fe_mem&#45;&gt;bp_fe_icache -->
<g id="edge6" class="edge">
<title>bp_fe_mem&#45;&gt;bp_fe_icache</title>
<path fill="none" stroke="black" d="M104.55,-72.41C96.83,-63.69 87.22,-52.85 78.68,-43.21"/>
<polygon fill="black" stroke="black" points="81.08,-40.64 71.83,-35.47 75.84,-45.28 81.08,-40.64"/>
</g>
<!-- bp_fe_btb -->
<g id="node4" class="node">
<title>bp_fe_btb</title>
<ellipse fill="#b2dfee" stroke="#b2dfee" cx="178.24" cy="-18" rx="45.93" ry="18"/>
<text text-anchor="middle" x="178.24" y="-13.8" font-family="Times,serif" font-size="14.00">bp_fe_btb</text>
</g>
<!-- bp_fe_pc_gen&#45;&gt;bp_fe_btb -->
<g id="edge3" class="edge">
<title>bp_fe_pc_gen&#45;&gt;bp_fe_btb</title>
<path fill="none" stroke="black" d="M258.13,-73.29C243.51,-63.36 224.47,-50.41 208.64,-39.66"/>
<polygon fill="black" stroke="black" points="210.46,-36.66 200.22,-33.94 206.53,-42.45 210.46,-36.66"/>
</g>
<!-- bp_fe_instr_scan -->
<g id="node5" class="node">
<title>bp_fe_instr_scan</title>
<ellipse fill="#b2dfee" stroke="#b2dfee" cx="312.24" cy="-18" rx="70.54" ry="18"/>
<text text-anchor="middle" x="312.24" y="-13.8" font-family="Times,serif" font-size="14.00">bp_fe_instr_scan</text>
</g>
<!-- bp_fe_pc_gen&#45;&gt;bp_fe_instr_scan -->
<g id="edge4" class="edge">
<title>bp_fe_pc_gen&#45;&gt;bp_fe_instr_scan</title>
<path fill="none" stroke="black" d="M288.75,-72.05C292.27,-64.09 296.56,-54.41 300.5,-45.51"/>
<polygon fill="black" stroke="black" points="303.74,-46.84 304.59,-36.28 297.34,-44 303.74,-46.84"/>
</g>
<!-- bp_fe_bht -->
<g id="node6" class="node">
<title>bp_fe_bht</title>
<ellipse fill="#b2dfee" stroke="#b2dfee" cx="446.24" cy="-18" rx="45.93" ry="18"/>
<text text-anchor="middle" x="446.24" y="-13.8" font-family="Times,serif" font-size="14.00">bp_fe_bht</text>
</g>
<!-- bp_fe_pc_gen&#45;&gt;bp_fe_bht -->
<g id="edge5" class="edge">
<title>bp_fe_pc_gen&#45;&gt;bp_fe_bht</title>
<path fill="none" stroke="black" d="M314.63,-74.83C341.25,-63.54 378.59,-47.7 406.71,-35.77"/>
<polygon fill="black" stroke="black" points="408.39,-38.86 416.23,-31.73 405.66,-32.42 408.39,-38.86"/>
</g>
<!-- bp_fe_lce_cmd -->
<g id="node8" class="node">
<title>bp_fe_lce_cmd</title>
<ellipse fill="#b2dfee" stroke="#b2dfee" cx="313.24" cy="-162" rx="64.74" ry="18"/>
<text text-anchor="middle" x="313.24" y="-157.8" font-family="Times,serif" font-size="14.00">bp_fe_lce_cmd</text>
</g>
<!-- bp_fe_lce_req -->
<g id="node9" class="node">
<title>bp_fe_lce_req</title>
<ellipse fill="#b2dfee" stroke="#b2dfee" cx="456.24" cy="-162" rx="60.87" ry="18"/>
<text text-anchor="middle" x="456.24" y="-157.8" font-family="Times,serif" font-size="14.00">bp_fe_lce_req</text>
</g>
<!-- bp_fe_lce -->
<g id="node10" class="node">
<title>bp_fe_lce</title>
<ellipse fill="#b2dfee" stroke="#b2dfee" cx="580.24" cy="-162" rx="44.94" ry="18"/>
<text text-anchor="middle" x="580.24" y="-157.8" font-family="Times,serif" font-size="14.00">bp_fe_lce</text>
</g>
</g>
</svg>
