<?xml version="1.0" encoding="UTF-8" standalone="no"?>
<!DOCTYPE svg PUBLIC "-//W3C//DTD SVG 1.1//EN"
 "http://www.w3.org/Graphics/SVG/1.1/DTD/svg11.dtd">
<!-- Generated by graphviz version 2.43.0 (0)
 -->
<!-- Title: bp_fe_top Pages: 1 -->
<svg width="2389pt" height="332pt"
 viewBox="0.00 0.00 2388.93 332.00" xmlns="http://www.w3.org/2000/svg" xmlns:xlink="http://www.w3.org/1999/xlink">
<g id="graph0" class="graph" transform="scale(1 1) rotate(0) translate(4 328)">
<title>bp_fe_top</title>
<polygon fill="white" stroke="transparent" points="-4,4 -4,-328 2384.93,-328 2384.93,4 -4,4"/>
<!-- bp_fe_mem -->
<g id="node1" class="node">
<title>bp_fe_mem</title>
<ellipse fill="#b2dfee" stroke="#b2dfee" cx="974.3" cy="-234" rx="52.19" ry="18"/>
<text text-anchor="middle" x="974.3" y="-229.8" font-family="Times,serif" font-size="14.00">bp_fe_mem</text>
</g>
<!-- bp_fe_icache -->
<g id="node8" class="node">
<title>bp_fe_icache</title>
<ellipse fill="#b2dfee" stroke="#b2dfee" cx="1200.3" cy="-162" rx="57.49" ry="18"/>
<text text-anchor="middle" x="1200.3" y="-157.8" font-family="Times,serif" font-size="14.00">bp_fe_icache</text>
</g>
<!-- bp_fe_mem&#45;&gt;bp_fe_icache -->
<g id="edge8" class="edge">
<title>bp_fe_mem&#45;&gt;bp_fe_icache</title>
<path fill="none" stroke="black" d="M1011.88,-221.36C1050.11,-209.52 1109.53,-191.11 1151.41,-178.14"/>
<polygon fill="black" stroke="black" points="1152.6,-181.44 1161.12,-175.14 1150.53,-174.75 1152.6,-181.44"/>
</g>
<!-- bp_fe_lce -->
<g id="node2" class="node">
<title>bp_fe_lce</title>
<ellipse fill="#b2dfee" stroke="#b2dfee" cx="1044.3" cy="-306" rx="44.94" ry="18"/>
<text text-anchor="middle" x="1044.3" y="-301.8" font-family="Times,serif" font-size="14.00">bp_fe_lce</text>
</g>
<!-- bp_fe_lce_cmd -->
<g id="node3" class="node">
<title>bp_fe_lce_cmd</title>
<ellipse fill="#b2dfee" stroke="#b2dfee" cx="1172.3" cy="-306" rx="64.74" ry="18"/>
<text text-anchor="middle" x="1172.3" y="-301.8" font-family="Times,serif" font-size="14.00">bp_fe_lce_cmd</text>
</g>
<!-- bsg_counter_clear_up -->
<g id="node15" class="node">
<title>bsg_counter_clear_up</title>
<ellipse fill="pink" stroke="pink" cx="1172.3" cy="-234" rx="88.39" ry="18"/>
<text text-anchor="middle" x="1172.3" y="-229.8" font-family="Times,serif" font-size="14.00">bsg_counter_clear_up</text>
</g>
<!-- bp_fe_lce_cmd&#45;&gt;bsg_counter_clear_up -->
<g id="edge22" class="edge">
<title>bp_fe_lce_cmd&#45;&gt;bsg_counter_clear_up</title>
<path fill="none" stroke="black" d="M1172.3,-287.7C1172.3,-279.98 1172.3,-270.71 1172.3,-262.11"/>
<polygon fill="black" stroke="black" points="1175.8,-262.1 1172.3,-252.1 1168.8,-262.1 1175.8,-262.1"/>
</g>
<!-- bp_fe_btb -->
<g id="node4" class="node">
<title>bp_fe_btb</title>
<ellipse fill="#b2dfee" stroke="#b2dfee" cx="83.3" cy="-90" rx="45.93" ry="18"/>
<text text-anchor="middle" x="83.3" y="-85.8" font-family="Times,serif" font-size="14.00">bp_fe_btb</text>
</g>
<!-- bsg_mem_1rw_sync -->
<g id="node20" class="node">
<title>bsg_mem_1rw_sync</title>
<ellipse fill="pink" stroke="pink" cx="83.3" cy="-18" rx="83.11" ry="18"/>
<text text-anchor="middle" x="83.3" y="-13.8" font-family="Times,serif" font-size="14.00">bsg_mem_1rw_sync</text>
</g>
<!-- bp_fe_btb&#45;&gt;bsg_mem_1rw_sync -->
<g id="edge9" class="edge">
<title>bp_fe_btb&#45;&gt;bsg_mem_1rw_sync</title>
<path fill="none" stroke="black" d="M83.3,-71.7C83.3,-63.98 83.3,-54.71 83.3,-46.11"/>
<polygon fill="black" stroke="black" points="86.8,-46.1 83.3,-36.1 79.8,-46.1 86.8,-46.1"/>
</g>
<!-- bp_fe_pc_gen -->
<g id="node5" class="node">
<title>bp_fe_pc_gen</title>
<ellipse fill="#b2dfee" stroke="#b2dfee" cx="419.3" cy="-162" rx="60.4" ry="18"/>
<text text-anchor="middle" x="419.3" y="-157.8" font-family="Times,serif" font-size="14.00">bp_fe_pc_gen</text>
</g>
<!-- bp_fe_pc_gen&#45;&gt;bp_fe_btb -->
<g id="edge7" class="edge">
<title>bp_fe_pc_gen&#45;&gt;bp_fe_btb</title>
<path fill="none" stroke="black" d="M366.92,-153.07C310,-144.02 216.55,-127.85 137.3,-108 133.91,-107.15 130.42,-106.21 126.92,-105.22"/>
<polygon fill="black" stroke="black" points="127.7,-101.8 117.12,-102.32 125.72,-108.51 127.7,-101.8"/>
</g>
<!-- bp_fe_instr_scan -->
<g id="node9" class="node">
<title>bp_fe_instr_scan</title>
<ellipse fill="#b2dfee" stroke="#b2dfee" cx="217.3" cy="-90" rx="70.54" ry="18"/>
<text text-anchor="middle" x="217.3" y="-85.8" font-family="Times,serif" font-size="14.00">bp_fe_instr_scan</text>
</g>
<!-- bp_fe_pc_gen&#45;&gt;bp_fe_instr_scan -->
<g id="edge4" class="edge">
<title>bp_fe_pc_gen&#45;&gt;bp_fe_instr_scan</title>
<path fill="none" stroke="black" d="M381.31,-147.83C349.03,-136.65 302.45,-120.51 267.18,-108.28"/>
<polygon fill="black" stroke="black" points="268.14,-104.91 257.55,-104.95 265.85,-111.53 268.14,-104.91"/>
</g>
<!-- bp_fe_bht -->
<g id="node10" class="node">
<title>bp_fe_bht</title>
<ellipse fill="#b2dfee" stroke="#b2dfee" cx="351.3" cy="-90" rx="45.93" ry="18"/>
<text text-anchor="middle" x="351.3" y="-85.8" font-family="Times,serif" font-size="14.00">bp_fe_bht</text>
</g>
<!-- bp_fe_pc_gen&#45;&gt;bp_fe_bht -->
<g id="edge6" class="edge">
<title>bp_fe_pc_gen&#45;&gt;bp_fe_bht</title>
<path fill="none" stroke="black" d="M403.19,-144.41C394.42,-135.39 383.45,-124.09 373.85,-114.21"/>
<polygon fill="black" stroke="black" points="376.31,-111.72 366.83,-106.99 371.29,-116.6 376.31,-111.72"/>
</g>
<!-- bsg_dff_reset -->
<g id="node13" class="node">
<title>bsg_dff_reset</title>
<ellipse fill="pink" stroke="pink" cx="633.3" cy="-90" rx="58.17" ry="18"/>
<text text-anchor="middle" x="633.3" y="-85.8" font-family="Times,serif" font-size="14.00">bsg_dff_reset</text>
</g>
<!-- bp_fe_pc_gen&#45;&gt;bsg_dff_reset -->
<g id="edge3" class="edge">
<title>bp_fe_pc_gen&#45;&gt;bsg_dff_reset</title>
<path fill="none" stroke="black" d="M458.55,-148.16C494.11,-136.53 546.62,-119.35 584.79,-106.87"/>
<polygon fill="black" stroke="black" points="586.25,-110.08 594.66,-103.64 584.07,-103.42 586.25,-110.08"/>
</g>
<!-- bsg_dff_reset_en -->
<g id="node17" class="node">
<title>bsg_dff_reset_en</title>
<ellipse fill="pink" stroke="pink" cx="486.3" cy="-90" rx="70.71" ry="18"/>
<text text-anchor="middle" x="486.3" y="-85.8" font-family="Times,serif" font-size="14.00">bsg_dff_reset_en</text>
</g>
<!-- bp_fe_pc_gen&#45;&gt;bsg_dff_reset_en -->
<g id="edge5" class="edge">
<title>bp_fe_pc_gen&#45;&gt;bsg_dff_reset_en</title>
<path fill="none" stroke="black" d="M435.18,-144.41C443.49,-135.73 453.81,-124.95 463,-115.34"/>
<polygon fill="black" stroke="black" points="465.69,-117.6 470.07,-107.96 460.63,-112.76 465.69,-117.6"/>
</g>
<!-- bp_fe_top -->
<g id="node6" class="node">
<title>bp_fe_top</title>
<ellipse fill="#b2dfee" stroke="#b2dfee" cx="934.3" cy="-306" rx="45.93" ry="18"/>
<text text-anchor="middle" x="934.3" y="-301.8" font-family="Times,serif" font-size="14.00">bp_fe_top</text>
</g>
<!-- bp_fe_top&#45;&gt;bp_fe_mem -->
<g id="edge1" class="edge">
<title>bp_fe_top&#45;&gt;bp_fe_mem</title>
<path fill="none" stroke="black" d="M943.99,-288.05C948.7,-279.8 954.47,-269.7 959.71,-260.54"/>
<polygon fill="black" stroke="black" points="962.79,-262.21 964.71,-251.79 956.71,-258.73 962.79,-262.21"/>
</g>
<!-- bp_fe_top&#45;&gt;bp_fe_pc_gen -->
<g id="edge2" class="edge">
<title>bp_fe_top&#45;&gt;bp_fe_pc_gen</title>
<path fill="none" stroke="black" d="M897.68,-294.9C807.85,-270.13 576.35,-206.3 471.86,-177.49"/>
<polygon fill="black" stroke="black" points="472.72,-174.1 462.15,-174.82 470.86,-180.85 472.72,-174.1"/>
</g>
<!-- bp_fe_lce_req -->
<g id="node7" class="node">
<title>bp_fe_lce_req</title>
<ellipse fill="#b2dfee" stroke="#b2dfee" cx="1335.3" cy="-306" rx="60.87" ry="18"/>
<text text-anchor="middle" x="1335.3" y="-301.8" font-family="Times,serif" font-size="14.00">bp_fe_lce_req</text>
</g>
<!-- bp_fe_lce_req&#45;&gt;bsg_counter_clear_up -->
<g id="edge20" class="edge">
<title>bp_fe_lce_req&#45;&gt;bsg_counter_clear_up</title>
<path fill="none" stroke="black" d="M1302.32,-290.83C1277.94,-280.36 1244.45,-265.98 1217.56,-254.44"/>
<polygon fill="black" stroke="black" points="1218.92,-251.21 1208.35,-250.48 1216.16,-257.64 1218.92,-251.21"/>
</g>
<!-- bsg_dff_en_bypass -->
<g id="node23" class="node">
<title>bsg_dff_en_bypass</title>
<ellipse fill="pink" stroke="pink" cx="1356.3" cy="-234" rx="78.47" ry="18"/>
<text text-anchor="middle" x="1356.3" y="-229.8" font-family="Times,serif" font-size="14.00">bsg_dff_en_bypass</text>
</g>
<!-- bp_fe_lce_req&#45;&gt;bsg_dff_en_bypass -->
<g id="edge21" class="edge">
<title>bp_fe_lce_req&#45;&gt;bsg_dff_en_bypass</title>
<path fill="none" stroke="black" d="M1340.39,-288.05C1342.72,-280.26 1345.56,-270.82 1348.18,-262.08"/>
<polygon fill="black" stroke="black" points="1351.6,-262.86 1351.12,-252.28 1344.89,-260.85 1351.6,-262.86"/>
</g>
<!-- bsg_lru_pseudo_tree_decode -->
<g id="node11" class="node">
<title>bsg_lru_pseudo_tree_decode</title>
<ellipse fill="pink" stroke="pink" cx="926.3" cy="-90" rx="113.5" ry="18"/>
<text text-anchor="middle" x="926.3" y="-85.8" font-family="Times,serif" font-size="14.00">bsg_lru_pseudo_tree_decode</text>
</g>
<!-- bp_fe_icache&#45;&gt;bsg_lru_pseudo_tree_decode -->
<g id="edge10" class="edge">
<title>bp_fe_icache&#45;&gt;bsg_lru_pseudo_tree_decode</title>
<path fill="none" stroke="black" d="M1157.19,-149.99C1113.25,-138.76 1044.48,-121.19 993.41,-108.14"/>
<polygon fill="black" stroke="black" points="994,-104.68 983.44,-105.6 992.27,-111.46 994,-104.68"/>
</g>
<!-- bsg_mem_1rw_sync_mask_write_bit -->
<g id="node12" class="node">
<title>bsg_mem_1rw_sync_mask_write_bit</title>
<ellipse fill="pink" stroke="pink" cx="1200.3" cy="-90" rx="142.98" ry="18"/>
<text text-anchor="middle" x="1200.3" y="-85.8" font-family="Times,serif" font-size="14.00">bsg_mem_1rw_sync_mask_write_bit</text>
</g>
<!-- bp_fe_icache&#45;&gt;bsg_mem_1rw_sync_mask_write_bit -->
<g id="edge11" class="edge">
<title>bp_fe_icache&#45;&gt;bsg_mem_1rw_sync_mask_write_bit</title>
<path fill="none" stroke="black" d="M1200.3,-143.7C1200.3,-135.98 1200.3,-126.71 1200.3,-118.11"/>
<polygon fill="black" stroke="black" points="1203.8,-118.1 1200.3,-108.1 1196.8,-118.1 1203.8,-118.1"/>
</g>
<!-- bp_fe_icache&#45;&gt;bsg_dff_reset -->
<g id="edge17" class="edge">
<title>bp_fe_icache&#45;&gt;bsg_dff_reset</title>
<path fill="none" stroke="black" d="M1144.44,-157.69C1051.65,-151.62 860.13,-136.6 700.3,-108 695.34,-107.11 690.19,-106.06 685.07,-104.91"/>
<polygon fill="black" stroke="black" points="685.81,-101.49 675.28,-102.63 684.22,-108.31 685.81,-101.49"/>
</g>
<!-- bsg_lru_pseudo_tree_encode -->
<g id="node14" class="node">
<title>bsg_lru_pseudo_tree_encode</title>
<ellipse fill="pink" stroke="pink" cx="1474.3" cy="-90" rx="113.5" ry="18"/>
<text text-anchor="middle" x="1474.3" y="-85.8" font-family="Times,serif" font-size="14.00">bsg_lru_pseudo_tree_encode</text>
</g>
<!-- bp_fe_icache&#45;&gt;bsg_lru_pseudo_tree_encode -->
<g id="edge12" class="edge">
<title>bp_fe_icache&#45;&gt;bsg_lru_pseudo_tree_encode</title>
<path fill="none" stroke="black" d="M1243.42,-149.99C1287.36,-138.76 1356.13,-121.19 1407.2,-108.14"/>
<polygon fill="black" stroke="black" points="1408.34,-111.46 1417.16,-105.6 1406.61,-104.68 1408.34,-111.46"/>
</g>
<!-- bsg_decode -->
<g id="node16" class="node">
<title>bsg_decode</title>
<ellipse fill="pink" stroke="pink" cx="1657.3" cy="-90" rx="51.71" ry="18"/>
<text text-anchor="middle" x="1657.3" y="-85.8" font-family="Times,serif" font-size="14.00">bsg_decode</text>
</g>
<!-- bp_fe_icache&#45;&gt;bsg_decode -->
<g id="edge14" class="edge">
<title>bp_fe_icache&#45;&gt;bsg_decode</title>
<path fill="none" stroke="black" d="M1254.5,-156.15C1331.15,-148.75 1475.36,-132.82 1596.3,-108 1600.66,-107.11 1605.17,-106.07 1609.66,-104.96"/>
<polygon fill="black" stroke="black" points="1610.62,-108.32 1619.43,-102.43 1608.87,-101.55 1610.62,-108.32"/>
</g>
<!-- bp_fe_icache&#45;&gt;bsg_dff_reset_en -->
<g id="edge18" class="edge">
<title>bp_fe_icache&#45;&gt;bsg_dff_reset_en</title>
<path fill="none" stroke="black" d="M1143.63,-158.66C1032.42,-153.54 778.02,-139.22 566.3,-108 560.03,-107.08 553.52,-105.96 547.04,-104.74"/>
<polygon fill="black" stroke="black" points="547.4,-101.24 536.91,-102.76 546.06,-108.11 547.4,-101.24"/>
</g>
<!-- bsg_priority_encode -->
<g id="node18" class="node">
<title>bsg_priority_encode</title>
<ellipse fill="pink" stroke="pink" cx="1810.3" cy="-90" rx="82.6" ry="18"/>
<text text-anchor="middle" x="1810.3" y="-85.8" font-family="Times,serif" font-size="14.00">bsg_priority_encode</text>
</g>
<!-- bp_fe_icache&#45;&gt;bsg_priority_encode -->
<g id="edge19" class="edge">
<title>bp_fe_icache&#45;&gt;bsg_priority_encode</title>
<path fill="none" stroke="black" d="M1255.3,-156.84C1350.1,-149.35 1550.29,-132.08 1718.3,-108 1725.68,-106.94 1733.37,-105.72 1741.02,-104.42"/>
<polygon fill="black" stroke="black" points="1741.78,-107.84 1751.03,-102.68 1740.58,-100.94 1741.78,-107.84"/>
</g>
<!-- bsg_mux_butterfly -->
<g id="node19" class="node">
<title>bsg_mux_butterfly</title>
<ellipse fill="pink" stroke="pink" cx="1988.3" cy="-90" rx="76.85" ry="18"/>
<text text-anchor="middle" x="1988.3" y="-85.8" font-family="Times,serif" font-size="14.00">bsg_mux_butterfly</text>
</g>
<!-- bp_fe_icache&#45;&gt;bsg_mux_butterfly -->
<g id="edge13" class="edge">
<title>bp_fe_icache&#45;&gt;bsg_mux_butterfly</title>
<path fill="none" stroke="black" d="M1256.96,-159.03C1376.62,-154.35 1663.72,-140.47 1902.3,-108 1909.35,-107.04 1916.7,-105.86 1923.99,-104.58"/>
<polygon fill="black" stroke="black" points="1924.66,-108.02 1933.87,-102.78 1923.41,-101.13 1924.66,-108.02"/>
</g>
<!-- bsg_mem_1rw_sync_mask_write_byte -->
<g id="node21" class="node">
<title>bsg_mem_1rw_sync_mask_write_byte</title>
<ellipse fill="pink" stroke="pink" cx="2232.3" cy="-90" rx="148.76" ry="18"/>
<text text-anchor="middle" x="2232.3" y="-85.8" font-family="Times,serif" font-size="14.00">bsg_mem_1rw_sync_mask_write_byte</text>
</g>
<!-- bp_fe_icache&#45;&gt;bsg_mem_1rw_sync_mask_write_byte -->
<g id="edge15" class="edge">
<title>bp_fe_icache&#45;&gt;bsg_mem_1rw_sync_mask_write_byte</title>
<path fill="none" stroke="black" d="M1256.61,-158.5C1395.59,-152.12 1766.04,-133.92 2074.3,-108 2088.49,-106.81 2103.37,-105.41 2118.1,-103.93"/>
<polygon fill="black" stroke="black" points="2118.66,-107.39 2128.26,-102.89 2117.95,-100.42 2118.66,-107.39"/>
</g>
<!-- bsg_mux -->
<g id="node22" class="node">
<title>bsg_mux</title>
<ellipse fill="pink" stroke="pink" cx="752.3" cy="-90" rx="42.57" ry="18"/>
<text text-anchor="middle" x="752.3" y="-85.8" font-family="Times,serif" font-size="14.00">bsg_mux</text>
</g>
<!-- bp_fe_icache&#45;&gt;bsg_mux -->
<g id="edge16" class="edge">
<title>bp_fe_icache&#45;&gt;bsg_mux</title>
<path fill="none" stroke="black" d="M1145.29,-156.84C1068.29,-150.29 924.33,-135.41 804.3,-108 800.71,-107.18 797.02,-106.22 793.33,-105.18"/>
<polygon fill="black" stroke="black" points="794.25,-101.8 783.67,-102.28 792.24,-108.5 794.25,-101.8"/>
</g>
</g>
</svg>
